<svg width="100" height="100" viewBox="0 0 100 100" fill="none" xmlns="http://www.w3.org/2000/svg">
<g clip-path="url(#clip0_313_174)">
<path fill-rule="evenodd" clip-rule="evenodd" d="M100 18.1822L71.875 7.95496V20.455L87.5 26.1368V73.864L50 87.5004V18.7504L18.75 30.114V69.8868L31.25 74.4322V56.2504H37.5V95.4549L50 100L100 81.8186V18.1822ZM37.5 35.7959L31.25 38.0686V50.0004H37.5V35.7959Z" fill="#63B3ED"/>
<path fill-rule="evenodd" clip-rule="evenodd" d="M100 18.1822L71.875 7.95496V20.455L87.5 26.1368V73.864L50 87.5004V18.7504L18.75 30.114V69.8868L31.25 74.4322V56.2504H37.5V95.4549L50 100L100 81.8186V18.1822ZM37.5 35.7959L31.25 38.0686V50.0004H37.5V35.7959Z" fill="#63B3ED"/>
<path d="M0.000444427 18.1818L0 81.8182L31.2504 93.1818V80.6818L12.5004 73.8636V26.1364L50.0004 12.5L53.1254 13.6364V80.1136L81.2504 69.8864V57.3864L65.6254 63.0682V63.4928V5.68182L50.0004 0L12.5004 13.6364L0.000444427 18.1818Z" fill="#63B3ED"/>
</g>
<defs>
<clipPath id="clip0_313_174">
<rect width="100" height="100" fill="white"/>
</clipPath>
</defs>
</svg>
