<svg width="57" height="34" viewBox="0 0 57 34" fill="none" xmlns="http://www.w3.org/2000/svg">
<path d="M14.2634 20.92C14.2901 20.8133 14.3034 20.7333 14.3034 20.68C14.3034 20.6267 14.2768 20.6 14.2234 20.6C14.1968 20.6 14.1168 20.6667 13.9834 20.8C13.8768 20.9333 13.7301 21.12 13.5434 21.36C13.3568 21.6 12.9568 22.0533 12.3434 22.72C11.7568 23.3867 11.1434 24.0133 10.5034 24.6C8.7701 26.2533 7.03677 27.52 5.30344 28.4C4.87677 28.6133 4.4101 28.72 3.90344 28.72C1.95677 28.72 0.983437 27.2533 0.983437 24.32C0.983437 21.7067 2.22344 18.56 4.70344 14.88C5.87677 13.1733 7.27677 11.5067 8.90344 9.88C10.5568 8.22667 12.3034 6.76 14.1434 5.48C15.9834 4.2 17.9834 3.17333 20.1434 2.4C22.3034 1.6 24.4101 1.2 26.4634 1.2C26.8101 1.2 27.2768 1.32 27.8634 1.56C28.8501 1.98667 29.3434 2.44 29.3434 2.92C29.3434 3.18667 29.1701 3.33333 28.8234 3.36C28.6901 3.36 28.6234 3.41333 28.6234 3.52C28.6234 3.62667 28.8101 3.84 29.1834 4.16C29.5834 4.45333 29.7834 4.74667 29.7834 5.04C29.7834 5.30667 29.6901 5.54667 29.5034 5.76C28.1701 7.22667 27.1034 8.45333 26.3034 9.44C25.5034 10.4 24.8901 11.12 24.4634 11.6C24.0634 12.08 23.5968 12.64 23.0634 13.28C22.5568 13.8933 21.9834 14.68 21.3434 15.64C20.7034 16.5733 20.1168 17.5067 19.5834 18.44C18.3568 20.7067 17.7434 22.7867 17.7434 24.68C17.7434 26.5467 17.9168 28.32 18.2634 30C18.6101 31.7067 18.9701 32.7467 19.3434 33.12C19.3434 33.2 19.2501 33.24 19.0634 33.24C17.8368 33.24 16.7834 32.76 15.9034 31.8C14.3034 30.0133 13.5034 27.6667 13.5034 24.76C13.5034 23.72 13.7568 22.44 14.2634 20.92ZM19.5034 11.92L27.1834 4.2C27.3701 4.01333 27.4634 3.88 27.4634 3.8C27.4634 3.72 27.3968 3.68 27.2634 3.68C25.2101 4 23.0368 4.84 20.7434 6.2C18.4501 7.56 16.3701 9.13333 14.5034 10.92C12.6368 12.7067 10.9168 14.5333 9.34344 16.4C7.7701 18.2667 6.54344 19.9467 5.66344 21.44C4.8101 22.9333 4.38344 24 4.38344 24.64C4.38344 24.7467 4.4501 24.8 4.58344 24.8C4.74344 24.8 5.03677 24.7067 5.46344 24.52C5.8901 24.3067 7.35677 23.1333 9.86344 21C12.3968 18.84 15.6101 15.8133 19.5034 11.92ZM28.7475 23C30.6675 20.8133 33.1475 17.88 36.1875 14.2C39.2275 10.52 41.4675 7.90667 42.9075 6.36C44.3475 4.81333 45.5875 3.64 46.6275 2.84C49.0542 1.02666 51.5208 0.119998 54.0275 0.119998C54.5875 0.119998 55.2142 0.346665 55.9075 0.799999C56.6275 1.25333 56.9875 1.96 56.9875 2.92C56.9875 3.85333 56.0942 5.29333 54.3075 7.24C53.4275 8.2 52.1475 9.18667 50.4675 10.2C48.8142 11.1867 46.9608 11.9867 44.9075 12.6C44.1342 12.7333 43.5608 12.8 43.1875 12.8C42.8408 12.8 42.6675 12.76 42.6675 12.68C42.6675 12.6 42.7608 12.5067 42.9475 12.4C45.1875 11.1733 47.6942 9.32 50.4675 6.84C53.2675 4.36 54.6675 2.73333 54.6675 1.96C54.6675 1.85333 54.5875 1.8 54.4275 1.8C54.2942 1.8 54.1342 1.82666 53.9475 1.88C53.7875 1.93333 53.6008 1.98667 53.3875 2.04C53.1742 2.09333 52.7208 2.32 52.0275 2.72C51.3342 3.09333 50.6008 3.57333 49.8275 4.16C49.0808 4.72 48.1342 5.6 46.9875 6.8C45.8675 7.97333 44.7342 9.33333 43.5875 10.88C39.1875 17.04 36.3342 20.8267 35.0275 22.24C34.8142 22.48 34.5475 22.7733 34.2275 23.12C34.8942 23.2 35.8942 23.2933 37.2275 23.4C38.5608 23.5067 39.4542 23.6 39.9075 23.68C40.3875 23.7333 41.0808 23.8667 41.9875 24.08C42.8942 24.2933 43.6142 24.56 44.1475 24.88C45.5342 25.7333 46.8675 26.8933 48.1475 28.36C48.4408 28.68 48.5875 28.8933 48.5875 29C48.5875 29.1067 48.5475 29.16 48.4675 29.16C48.3342 29.16 48.1608 29.1067 47.9475 29C47.5475 28.8933 46.9608 28.7467 46.1875 28.56C45.4408 28.3733 43.8142 28.1333 41.3075 27.84C38.8008 27.5467 36.4942 27.4 34.3875 27.4C32.3075 27.4 30.7875 27.4133 29.8275 27.44C28.4142 28.7733 26.4275 30.0133 23.8675 31.16C21.3075 32.3067 19.3875 32.88 18.1075 32.88C16.8008 32.88 15.5742 32.5333 14.4275 31.84C13.2808 31.1733 12.7075 30.2667 12.7075 29.12C12.7075 28.2933 13.3342 27.3867 14.5875 26.4C17.4675 24.1333 22.1875 23 28.7475 23ZM14.9075 30.28C14.9075 30.5467 15.2275 30.72 15.8675 30.8C16.6942 30.8 17.4008 30.7467 17.9875 30.64C18.5742 30.56 19.4408 30.2667 20.5875 29.76C21.7075 29.2533 22.8942 28.5067 24.1475 27.52C22.4408 27.52 20.4808 27.8267 18.2675 28.44C16.0275 29.0533 14.9075 29.6667 14.9075 30.28Z" fill="#63B3ED"/>
</svg>
